<svg xmlns="http://www.w3.org/2000/svg" viewBox="0 0 260.93 52.17"><title>Ресурс 1</title><g id="Слой_2" data-name="Слой 2"><g id="Слой_2-2" data-name="Слой 2"><path d="M17.23,62.09l-4.15-2.24a14.79,14.79,0,0,1-6.33-6.5A22.54,22.54,0,0,1,4.57,43V29A22.46,22.46,0,0,1,6.75,18.69a15,15,0,0,1,6.33-6.53,20.64,20.64,0,0,1,10-2.25A17.76,17.76,0,0,1,31.68,12,16.89,16.89,0,0,1,38,18a26,26,0,0,1,3.43,9.54h-10a12.7,12.7,0,0,0-1.74-4.32,8.23,8.23,0,0,0-2.84-2.74,7.39,7.39,0,0,0-3.75-.95,9.05,9.05,0,0,0-4.6,1.1,7.11,7.11,0,0,0-2.9,3.24,11.88,11.88,0,0,0-1,5.11V43a11.8,11.8,0,0,0,1,5.1,7.11,7.11,0,0,0,2.9,3.22,9.05,9.05,0,0,0,4.6,1.1,7.75,7.75,0,0,0,3.8-.93,8.11,8.11,0,0,0,2.85-2.72,12.72,12.72,0,0,0,1.68-4.36h10A26.54,26.54,0,0,1,37.92,54a17,17,0,0,1-6.26,6,17.51,17.51,0,0,1-8.6,2.08Z" transform="translate(-4.57 -9.91)"/><path d="M50.17,10.41H59.8V61.56H50.17ZM54,31.71H71.79a4.66,4.66,0,0,0,2.6-.74,4.75,4.75,0,0,0,1.74-2.11,8,8,0,0,0,.65-3.16,7.61,7.61,0,0,0-.61-3.16,4.75,4.75,0,0,0-1.74-2.11,4.64,4.64,0,0,0-2.64-.74H54V10.41H72.56A14.29,14.29,0,0,1,80,12.3a12.89,12.89,0,0,1,5,5.37,17.49,17.49,0,0,1,1.76,8,17.52,17.52,0,0,1-1.76,8,12.72,12.72,0,0,1-5,5.36,14.23,14.23,0,0,1-7.4,1.9H54Zm10.76,7.7,10.3-1.62L88.84,61.56H77.17Z" transform="translate(-4.57 -9.91)"/><path d="M129.27,10.44H142V61.56h-8.75V21.87l.35,2.25-9.77,31.74h-8.51l-9.78-31,.36-2.95V61.56H97.1V10.44h12.69l9.74,34.45Z" transform="translate(-4.57 -9.91)"/><path d="M153.21,10.44h9.63V61.56h-9.63Zm4.29,41.84h29.95v9.28H157.5Z" transform="translate(-4.57 -9.91)"/><path d="M193.25,10.44h9.64v9.63h-9.64Zm0,14.63h9.64V61.56h-9.64Z" transform="translate(-4.57 -9.91)"/><path d="M209,25.07H226.9v8.22H209Zm6,34.22q-2.24-2.45-2.23-7.22V14.45h9.63V49.68a3.43,3.43,0,0,0,.53,2,1.8,1.8,0,0,0,1.55.72h2.39v9.28h-4.85Q217.27,61.73,215,59.29Z" transform="translate(-4.57 -9.91)"/><path d="M245.71,62.09,242,60.17a13.12,13.12,0,0,1-5.71-5.59,18.53,18.53,0,0,1-2-8.84V41.63a20.87,20.87,0,0,1,1.88-9.25,13.11,13.11,0,0,1,5.49-5.84,17.7,17.7,0,0,1,8.7-2,13.94,13.94,0,0,1,8.19,2.39,14.71,14.71,0,0,1,5.18,6.94,30.17,30.17,0,0,1,1.78,11v2.39h-25v-6.5h16.17l-.1-.85a8.45,8.45,0,0,0-2-4.88,5.55,5.55,0,0,0-4.27-1.73,7,7,0,0,0-5.4,2.08A8.32,8.32,0,0,0,243,41.24v4.64a7.64,7.64,0,0,0,2.09,5.76,8,8,0,0,0,5.85,2,11.09,11.09,0,0,0,3.83-.68,11.75,11.75,0,0,0,3.45-2l6.29,5.59a21.08,21.08,0,0,1-6.4,4A19.14,19.14,0,0,1,251,62.09Z" transform="translate(-4.57 -9.91)"/></g></g></svg>